<svg width="200" height="200" viewBox="0 0 200 200" fill="none" xmlns="http://www.w3.org/2000/svg">
<rect width="200" height="200" rx="44" fill="white"/>
<mask id="path-2-outside-1_2_140" maskUnits="userSpaceOnUse" x="49" y="37" width="106" height="126" fill="black">
<rect fill="white" x="49" y="37" width="106" height="126"/>
<path d="M65.0682 147L65.6136 144.091L134.523 56.8182H80.5227L80.8864 53.9091H138.705L138.341 56.8182L69.25 144.091H124.159L123.614 147H65.0682Z"/>
</mask>
<path d="M65.0682 147L49.3422 144.051C48.4651 148.73 49.7163 153.556 52.756 157.218C55.7958 160.881 60.3084 163 65.0682 163V147ZM65.6136 144.091L53.0562 134.176C51.452 136.207 50.3647 138.598 49.8877 141.142L65.6136 144.091ZM134.523 56.8182L147.08 66.7333C150.88 61.9207 151.595 55.3595 148.921 49.8412C146.247 44.3228 140.655 40.8182 134.523 40.8182V56.8182ZM80.5227 56.8182L64.6463 54.8336C64.077 59.3875 65.4907 63.9665 68.5279 67.407C71.5651 70.8475 75.9334 72.8182 80.5227 72.8182V56.8182ZM80.8864 53.9091V37.9091C72.8172 37.9091 66.0108 43.9177 65.0099 51.9245L80.8864 53.9091ZM138.705 53.9091L154.581 55.8936C155.15 51.3398 153.737 46.7607 150.699 43.3202C147.662 39.8797 143.294 37.9091 138.705 37.9091V53.9091ZM138.341 56.8182L150.886 66.7494C152.702 64.455 153.854 61.7065 154.217 58.8027L138.341 56.8182ZM69.25 144.091L56.7053 134.16C52.8968 138.97 52.1748 145.535 54.8469 151.059C57.5189 156.582 63.1143 160.091 69.25 160.091V144.091ZM124.159 144.091L139.885 147.04C140.762 142.361 139.511 137.535 136.471 133.873C133.431 130.21 128.919 128.091 124.159 128.091V144.091ZM123.614 147V163C131.313 163 137.921 157.516 139.34 149.949L123.614 147ZM80.7941 149.949L81.3396 147.04L49.8877 141.142L49.3422 144.051L80.7941 149.949ZM78.1711 154.006L147.08 66.7333L121.965 46.903L53.0562 134.176L78.1711 154.006ZM134.523 40.8182H80.5227V72.8182H134.523V40.8182ZM96.3992 58.8027L96.7628 55.8936L65.0099 51.9245L64.6463 54.8336L96.3992 58.8027ZM80.8864 69.9091H138.705V37.9091H80.8864V69.9091ZM122.828 51.9246L122.464 54.8336L154.217 58.8027L154.581 55.8936L122.828 51.9246ZM125.796 46.8869L56.7053 134.16L81.7947 154.022L150.886 66.7494L125.796 46.8869ZM69.25 160.091H124.159V128.091H69.25V160.091ZM108.433 141.142L107.888 144.051L139.34 149.949L139.885 147.04L108.433 141.142ZM123.614 131H65.0682V163H123.614V131Z" fill="black" mask="url(#path-2-outside-1_2_140)"/>
</svg>
